
<svg xmlns="http://www.w3.org/2000/svg" xmlns:xlink="http://www.w3.org/1999/xlink" width="278" zoomAndPan="magnify" viewBox="0 0 208.5 163.5" height="218" preserveAspectRatio="xMidYMid meet" version="1.0"><defs><g/><clipPath id="e0cb82b1e9"><path d="M 51 160 L 207.933594 160 L 207.933594 163 L 51 163 Z M 51 160 " clip-rule="nonzero"/></clipPath><clipPath id="ad6f56483d"><path d="M 0.0703125 0 L 130 0 L 130 149.542969 L 0.0703125 149.542969 Z M 0.0703125 0 " clip-rule="nonzero"/></clipPath><clipPath id="0f02dbfd95"><path d="M 205 5 L 207.933594 5 L 207.933594 163 L 205 163 Z M 205 5 " clip-rule="nonzero"/></clipPath><clipPath id="df21cceb0b"><path d="M 70 6 L 207.933594 6 L 207.933594 9 L 70 9 Z M 70 6 " clip-rule="nonzero"/></clipPath><clipPath id="fe37800266"><path d="M 52 145 L 55 145 L 55 163 L 52 163 Z M 52 145 " clip-rule="nonzero"/></clipPath></defs><g clip-path="url(#e0cb82b1e9)"><path stroke-linecap="butt" transform="matrix(0.747713, 0, 0, 0.747713, 52.422065, 160.292283)" fill="none" stroke-linejoin="miter" d="M -0.000254143 1.50028 L 207.235738 1.50028 " stroke="#000000" stroke-width="3" stroke-opacity="1" stroke-miterlimit="4"/></g><g fill="#010521" fill-opacity="1"><g transform="translate(122.204482, 149.492804)"><g><path d="M 0.765625 0 L 0.765625 -9.03125 L 4.328125 -9.03125 C 5.160156 -9.03125 5.804688 -8.820312 6.265625 -8.40625 C 6.734375 -7.988281 6.96875 -7.398438 6.96875 -6.640625 C 6.96875 -6.140625 6.84375 -5.71875 6.59375 -5.375 C 6.351562 -5.03125 6.015625 -4.796875 5.578125 -4.671875 L 5.578125 -4.65625 C 6.109375 -4.550781 6.515625 -4.304688 6.796875 -3.921875 C 7.085938 -3.535156 7.234375 -3.0625 7.234375 -2.5 C 7.234375 -1.71875 6.976562 -1.101562 6.46875 -0.65625 C 5.957031 -0.21875 5.242188 0 4.328125 0 Z M 1.828125 -5.125 L 4.203125 -5.125 C 4.742188 -5.125 5.160156 -5.253906 5.453125 -5.515625 C 5.753906 -5.773438 5.90625 -6.132812 5.90625 -6.59375 C 5.90625 -7.0625 5.753906 -7.425781 5.453125 -7.6875 C 5.160156 -7.945312 4.75 -8.078125 4.21875 -8.078125 L 1.828125 -8.078125 Z M 1.828125 -0.953125 L 4.1875 -0.953125 C 4.820312 -0.953125 5.3125 -1.09375 5.65625 -1.375 C 6 -1.664062 6.171875 -2.066406 6.171875 -2.578125 C 6.171875 -3.078125 5.992188 -3.46875 5.640625 -3.75 C 5.296875 -4.03125 4.8125 -4.171875 4.1875 -4.171875 L 1.828125 -4.171875 Z M 1.828125 -0.953125 "/></g></g></g><g fill="#010521" fill-opacity="1"><g transform="translate(129.82317, 149.492804)"><g><path d="M 4.75 0.28125 C 3.882812 0.28125 3.128906 0.0820312 2.484375 -0.3125 C 1.835938 -0.707031 1.335938 -1.265625 0.984375 -1.984375 C 0.628906 -2.703125 0.453125 -3.546875 0.453125 -4.515625 C 0.453125 -5.484375 0.628906 -6.328125 0.984375 -7.046875 C 1.335938 -7.765625 1.835938 -8.320312 2.484375 -8.71875 C 3.128906 -9.113281 3.882812 -9.3125 4.75 -9.3125 C 5.625 -9.3125 6.382812 -9.113281 7.03125 -8.71875 C 7.675781 -8.332031 8.175781 -7.78125 8.53125 -7.0625 C 8.882812 -6.34375 9.0625 -5.492188 9.0625 -4.515625 C 9.0625 -3.546875 8.882812 -2.703125 8.53125 -1.984375 C 8.175781 -1.265625 7.675781 -0.707031 7.03125 -0.3125 C 6.382812 0.0820312 5.625 0.28125 4.75 0.28125 Z M 4.75 -0.671875 C 5.40625 -0.671875 5.972656 -0.828125 6.453125 -1.140625 C 6.941406 -1.460938 7.316406 -1.910156 7.578125 -2.484375 C 7.847656 -3.066406 7.984375 -3.742188 7.984375 -4.515625 C 7.984375 -5.285156 7.847656 -5.957031 7.578125 -6.53125 C 7.316406 -7.113281 6.941406 -7.5625 6.453125 -7.875 C 5.972656 -8.195312 5.40625 -8.359375 4.75 -8.359375 C 4.101562 -8.359375 3.535156 -8.195312 3.046875 -7.875 C 2.554688 -7.5625 2.175781 -7.113281 1.90625 -6.53125 C 1.644531 -5.957031 1.515625 -5.285156 1.515625 -4.515625 C 1.515625 -3.742188 1.644531 -3.066406 1.90625 -2.484375 C 2.175781 -1.910156 2.554688 -1.460938 3.046875 -1.140625 C 3.535156 -0.828125 4.101562 -0.671875 4.75 -0.671875 Z M 4.75 -0.671875 "/></g></g></g><g fill="#010521" fill-opacity="1"><g transform="translate(139.324113, 149.492804)"><g><path d="M 0.765625 0 L 0.765625 -9.03125 L 1.828125 -9.03125 L 1.828125 -0.953125 L 5.6875 -0.953125 L 5.6875 0 Z M 0.765625 0 "/></g></g></g><g fill="#010521" fill-opacity="1"><g transform="translate(145.137363, 149.492804)"><g><path d="M 3.796875 0.28125 C 3.128906 0.28125 2.535156 0.144531 2.015625 -0.125 C 1.492188 -0.394531 1.078125 -0.765625 0.765625 -1.234375 C 0.460938 -1.710938 0.289062 -2.257812 0.25 -2.875 L 1.3125 -3.09375 C 1.332031 -2.613281 1.453125 -2.191406 1.671875 -1.828125 C 1.890625 -1.460938 2.179688 -1.175781 2.546875 -0.96875 C 2.921875 -0.769531 3.34375 -0.671875 3.8125 -0.671875 C 4.4375 -0.671875 4.925781 -0.828125 5.28125 -1.140625 C 5.644531 -1.460938 5.828125 -1.859375 5.828125 -2.328125 C 5.828125 -2.703125 5.695312 -3.015625 5.4375 -3.265625 C 5.1875 -3.523438 4.773438 -3.742188 4.203125 -3.921875 L 2.8125 -4.34375 C 2.082031 -4.5625 1.546875 -4.859375 1.203125 -5.234375 C 0.867188 -5.617188 0.703125 -6.113281 0.703125 -6.71875 C 0.703125 -7.207031 0.8125 -7.648438 1.03125 -8.046875 C 1.257812 -8.441406 1.582031 -8.75 2 -8.96875 C 2.414062 -9.195312 2.914062 -9.3125 3.5 -9.3125 C 4.039062 -9.3125 4.519531 -9.203125 4.9375 -8.984375 C 5.363281 -8.765625 5.695312 -8.453125 5.9375 -8.046875 C 6.1875 -7.648438 6.332031 -7.1875 6.375 -6.65625 L 5.375 -6.421875 C 5.332031 -7.003906 5.140625 -7.472656 4.796875 -7.828125 C 4.460938 -8.179688 4.03125 -8.359375 3.5 -8.359375 C 2.96875 -8.359375 2.546875 -8.207031 2.234375 -7.90625 C 1.921875 -7.613281 1.765625 -7.25 1.765625 -6.8125 C 1.765625 -6.4375 1.878906 -6.128906 2.109375 -5.890625 C 2.335938 -5.648438 2.710938 -5.453125 3.234375 -5.296875 L 4.609375 -4.875 C 5.390625 -4.65625 5.96875 -4.347656 6.34375 -3.953125 C 6.71875 -3.554688 6.90625 -3.046875 6.90625 -2.421875 C 6.90625 -1.921875 6.78125 -1.460938 6.53125 -1.046875 C 6.28125 -0.640625 5.921875 -0.316406 5.453125 -0.078125 C 4.992188 0.160156 4.441406 0.28125 3.796875 0.28125 Z M 3.796875 0.28125 "/></g></g></g><g fill="#010521" fill-opacity="1"><g transform="translate(152.295085, 149.492804)"><g><path d="M 4.75 0.28125 C 3.882812 0.28125 3.128906 0.0820312 2.484375 -0.3125 C 1.835938 -0.707031 1.335938 -1.265625 0.984375 -1.984375 C 0.628906 -2.703125 0.453125 -3.546875 0.453125 -4.515625 C 0.453125 -5.484375 0.628906 -6.328125 0.984375 -7.046875 C 1.335938 -7.765625 1.835938 -8.320312 2.484375 -8.71875 C 3.128906 -9.113281 3.882812 -9.3125 4.75 -9.3125 C 5.625 -9.3125 6.382812 -9.113281 7.03125 -8.71875 C 7.675781 -8.332031 8.175781 -7.78125 8.53125 -7.0625 C 8.882812 -6.34375 9.0625 -5.492188 9.0625 -4.515625 C 9.0625 -3.546875 8.882812 -2.703125 8.53125 -1.984375 C 8.175781 -1.265625 7.675781 -0.707031 7.03125 -0.3125 C 6.382812 0.0820312 5.625 0.28125 4.75 0.28125 Z M 4.75 -0.671875 C 5.40625 -0.671875 5.972656 -0.828125 6.453125 -1.140625 C 6.941406 -1.460938 7.316406 -1.910156 7.578125 -2.484375 C 7.847656 -3.066406 7.984375 -3.742188 7.984375 -4.515625 C 7.984375 -5.285156 7.847656 -5.957031 7.578125 -6.53125 C 7.316406 -7.113281 6.941406 -7.5625 6.453125 -7.875 C 5.972656 -8.195312 5.40625 -8.359375 4.75 -8.359375 C 4.101562 -8.359375 3.535156 -8.195312 3.046875 -7.875 C 2.554688 -7.5625 2.175781 -7.113281 1.90625 -6.53125 C 1.644531 -5.957031 1.515625 -5.285156 1.515625 -4.515625 C 1.515625 -3.742188 1.644531 -3.066406 1.90625 -2.484375 C 2.175781 -1.910156 2.554688 -1.460938 3.046875 -1.140625 C 3.535156 -0.828125 4.101562 -0.671875 4.75 -0.671875 Z M 4.75 -0.671875 "/></g></g></g><g fill="#010521" fill-opacity="1"><g transform="translate(161.796029, 149.492804)"><g><path d="M 3.796875 0.28125 C 3.128906 0.28125 2.535156 0.144531 2.015625 -0.125 C 1.492188 -0.394531 1.078125 -0.765625 0.765625 -1.234375 C 0.460938 -1.710938 0.289062 -2.257812 0.25 -2.875 L 1.3125 -3.09375 C 1.332031 -2.613281 1.453125 -2.191406 1.671875 -1.828125 C 1.890625 -1.460938 2.179688 -1.175781 2.546875 -0.96875 C 2.921875 -0.769531 3.34375 -0.671875 3.8125 -0.671875 C 4.4375 -0.671875 4.925781 -0.828125 5.28125 -1.140625 C 5.644531 -1.460938 5.828125 -1.859375 5.828125 -2.328125 C 5.828125 -2.703125 5.695312 -3.015625 5.4375 -3.265625 C 5.1875 -3.523438 4.773438 -3.742188 4.203125 -3.921875 L 2.8125 -4.34375 C 2.082031 -4.5625 1.546875 -4.859375 1.203125 -5.234375 C 0.867188 -5.617188 0.703125 -6.113281 0.703125 -6.71875 C 0.703125 -7.207031 0.8125 -7.648438 1.03125 -8.046875 C 1.257812 -8.441406 1.582031 -8.75 2 -8.96875 C 2.414062 -9.195312 2.914062 -9.3125 3.5 -9.3125 C 4.039062 -9.3125 4.519531 -9.203125 4.9375 -8.984375 C 5.363281 -8.765625 5.695312 -8.453125 5.9375 -8.046875 C 6.1875 -7.648438 6.332031 -7.1875 6.375 -6.65625 L 5.375 -6.421875 C 5.332031 -7.003906 5.140625 -7.472656 4.796875 -7.828125 C 4.460938 -8.179688 4.03125 -8.359375 3.5 -8.359375 C 2.96875 -8.359375 2.546875 -8.207031 2.234375 -7.90625 C 1.921875 -7.613281 1.765625 -7.25 1.765625 -6.8125 C 1.765625 -6.4375 1.878906 -6.128906 2.109375 -5.890625 C 2.335938 -5.648438 2.710938 -5.453125 3.234375 -5.296875 L 4.609375 -4.875 C 5.390625 -4.65625 5.96875 -4.347656 6.34375 -3.953125 C 6.71875 -3.554688 6.90625 -3.046875 6.90625 -2.421875 C 6.90625 -1.921875 6.78125 -1.460938 6.53125 -1.046875 C 6.28125 -0.640625 5.921875 -0.316406 5.453125 -0.078125 C 4.992188 0.160156 4.441406 0.28125 3.796875 0.28125 Z M 3.796875 0.28125 "/></g></g></g><g fill="#010521" fill-opacity="1"><g transform="translate(168.95375, 149.492804)"><g/></g></g><g fill="#010521" fill-opacity="1"><g transform="translate(171.796353, 149.492804)"><g><path d="M 2.75 0.25 C 2.050781 0.25 1.484375 0.0546875 1.046875 -0.328125 C 0.609375 -0.722656 0.34375 -1.269531 0.25 -1.96875 L 1.1875 -2.375 C 1.226562 -1.84375 1.382812 -1.425781 1.65625 -1.125 C 1.925781 -0.832031 2.28125 -0.6875 2.71875 -0.6875 C 3.144531 -0.6875 3.472656 -0.828125 3.703125 -1.109375 C 3.929688 -1.390625 4.046875 -1.789062 4.046875 -2.3125 L 4.046875 -9.03125 L 5.109375 -9.03125 L 5.109375 -2.21875 C 5.109375 -1.4375 4.898438 -0.828125 4.484375 -0.390625 C 4.078125 0.0351562 3.5 0.25 2.75 0.25 Z M 2.75 0.25 "/></g></g></g><g fill="#010521" fill-opacity="1"><g transform="translate(177.545575, 149.492804)"><g><path d="M 6.4375 -1.765625 L 8.15625 0 L 6.796875 0 L 5.8125 -1 C 5.445312 -0.613281 5.023438 -0.304688 4.546875 -0.078125 C 4.078125 0.140625 3.59375 0.25 3.09375 0.25 C 2.5625 0.25 2.085938 0.144531 1.671875 -0.0625 C 1.265625 -0.28125 0.945312 -0.578125 0.71875 -0.953125 C 0.5 -1.335938 0.390625 -1.78125 0.390625 -2.28125 C 0.390625 -2.863281 0.523438 -3.359375 0.796875 -3.765625 C 1.078125 -4.171875 1.515625 -4.53125 2.109375 -4.84375 C 1.878906 -5.125 1.6875 -5.445312 1.53125 -5.8125 C 1.375 -6.175781 1.296875 -6.546875 1.296875 -6.921875 C 1.296875 -7.378906 1.394531 -7.78125 1.59375 -8.125 C 1.789062 -8.476562 2.0625 -8.753906 2.40625 -8.953125 C 2.757812 -9.148438 3.164062 -9.25 3.625 -9.25 C 4.28125 -9.25 4.820312 -9.054688 5.25 -8.671875 C 5.6875 -8.285156 5.90625 -7.757812 5.90625 -7.09375 C 5.914062 -6.550781 5.742188 -6.078125 5.390625 -5.671875 C 5.046875 -5.273438 4.488281 -4.90625 3.71875 -4.5625 L 5.78125 -2.421875 C 5.957031 -2.691406 6.117188 -2.992188 6.265625 -3.328125 C 6.421875 -3.671875 6.550781 -4.015625 6.65625 -4.359375 L 7.375 -3.609375 C 7.25 -3.273438 7.101562 -2.945312 6.9375 -2.625 C 6.78125 -2.3125 6.613281 -2.023438 6.4375 -1.765625 Z M 3.625 -8.296875 C 3.238281 -8.296875 2.921875 -8.164062 2.671875 -7.90625 C 2.429688 -7.65625 2.3125 -7.328125 2.3125 -6.921875 C 2.320312 -6.628906 2.394531 -6.335938 2.53125 -6.046875 C 2.664062 -5.753906 2.851562 -5.476562 3.09375 -5.21875 C 3.71875 -5.488281 4.171875 -5.765625 4.453125 -6.046875 C 4.734375 -6.335938 4.875 -6.660156 4.875 -7.015625 C 4.882812 -7.378906 4.769531 -7.679688 4.53125 -7.921875 C 4.289062 -8.171875 3.988281 -8.296875 3.625 -8.296875 Z M 3.21875 -0.703125 C 3.613281 -0.703125 3.976562 -0.785156 4.3125 -0.953125 C 4.644531 -1.117188 4.929688 -1.351562 5.171875 -1.65625 L 2.734375 -4.15625 C 2.285156 -3.925781 1.957031 -3.671875 1.75 -3.390625 C 1.539062 -3.109375 1.4375 -2.757812 1.4375 -2.34375 C 1.4375 -1.863281 1.601562 -1.46875 1.9375 -1.15625 C 2.269531 -0.851562 2.695312 -0.703125 3.21875 -0.703125 Z M 3.21875 -0.703125 "/></g></g></g><g fill="#010521" fill-opacity="1"><g transform="translate(185.702047, 149.492804)"><g><path d="M 0.125 0 L 3.21875 -9.03125 L 4.546875 -9.03125 L 7.640625 0 L 6.53125 0 L 5.8125 -2.171875 L 1.953125 -2.171875 L 1.25 0 Z M 2.25 -3.109375 L 5.515625 -3.109375 L 3.90625 -8.03125 L 3.875 -8.03125 Z M 2.25 -3.109375 "/></g></g></g><g clip-path="url(#ad6f56483d)"><path fill="#231f20" d="M 61.480469 11.585938 C 61.351562 10.652344 61.210938 9.726562 61.054688 8.796875 C 61.046875 8.75 59.566406 9.507812 59.4375 9.605469 C 58.738281 10.132812 58.09375 10.667969 57.53125 11.34375 C 58.875 11.402344 60.21875 11.59375 61.527344 11.914062 C 61.511719 11.800781 61.496094 11.695312 61.480469 11.585938 Z M 72.5 13.785156 C 70.320312 9.964844 66.328125 7.441406 62.570312 8.558594 C 62.648438 9.605469 62.730469 10.703125 62.804688 11.730469 C 66.15625 12.4375 69.273438 13.097656 72.5 13.785156 Z M 73.953125 12.421875 C 73.175781 9.871094 71.875 7.984375 69.742188 6.519531 C 63.789062 2.417969 57.144531 1.09375 50.125 2.410156 C 45.4375 3.289062 43.636719 5.546875 43.246094 11.328125 C 43.742188 11.304688 44.230469 11.273438 44.71875 11.257812 C 47.53125 11.179688 50.351562 10.953125 53.15625 11.089844 C 54.828125 11.167969 56.003906 10.785156 57.140625 9.554688 C 59.5625 6.929688 62.617188 6.238281 66.058594 7.070312 C 69.363281 7.867188 71.984375 9.652344 73.953125 12.421875 Z M 84.417969 18.695312 C 89.046875 21.117188 92.558594 24.710938 95.894531 28.601562 C 100.488281 26.769531 105.136719 25.925781 109.953125 25.929688 C 114.164062 25.933594 118.070312 27.570312 121.652344 29.664062 C 122.371094 30.085938 123.117188 30.457031 123.804688 30.933594 C 123.484375 30.148438 123.082031 29.363281 122.671875 28.625 C 121.355469 26.25 119.820312 23.996094 118.148438 21.859375 C 116.820312 20.167969 115.40625 18.542969 113.9375 16.972656 C 113.253906 16.242188 112.582031 15.367188 111.753906 14.800781 C 110.910156 14.226562 109.949219 13.855469 108.976562 13.566406 C 107.890625 13.242188 106.699219 13.214844 105.546875 13.15625 C 98.007812 12.765625 91.308594 15.695312 84.417969 18.695312 Z M 96.65625 29.644531 C 97.347656 30.871094 97.949219 31.765625 98.386719 32.730469 C 99.597656 35.429688 101.078125 38.066406 101.84375 40.894531 C 103.609375 47.386719 104.609375 54.035156 105.078125 60.761719 C 105.410156 65.582031 105.613281 70.410156 105.664062 75.242188 C 105.691406 77.644531 105.679688 80.050781 105.628906 82.453125 C 105.601562 83.667969 105.582031 84.882812 105.519531 86.09375 C 105.460938 87.210938 105.476562 88.339844 105.367188 89.460938 C 105.867188 88.363281 106.363281 87.269531 106.863281 86.171875 C 107.339844 85.121094 107.675781 84.03125 108.054688 82.941406 C 108.839844 80.675781 109.625 78.410156 110.367188 76.128906 C 110.707031 75.082031 111.035156 74.03125 111.351562 72.972656 C 113.867188 64.574219 114.882812 56 113.621094 47.257812 C 112.960938 42.675781 112.070312 38.140625 110.101562 33.886719 C 109.074219 31.664062 107.621094 29.8125 105.664062 28.378906 C 105.121094 27.984375 104.304688 27.535156 103.738281 27.664062 C 101.4375 28.183594 99.1875 28.914062 96.65625 29.644531 Z M 73.792969 147.125 C 74.382812 147.292969 74.859375 147.386719 75.480469 147.410156 C 75.691406 147.414062 77.253906 147.601562 77.332031 147.46875 C 78.117188 145.933594 78.578125 144.1875 78.625 142.460938 C 78.699219 139.496094 78.785156 136.535156 78.808594 133.570312 C 78.859375 126.847656 78.863281 120.121094 78.917969 113.398438 C 78.941406 110.363281 79.015625 107.324219 79.117188 104.292969 C 79.328125 97.933594 79.570312 91.578125 79.789062 85.21875 C 79.8125 84.570312 79.8125 83.910156 79.726562 83.269531 C 79.671875 82.878906 79.574219 82.488281 79.402344 82.132812 C 79.054688 81.414062 78.410156 80.933594 77.636719 80.753906 C 76.480469 80.480469 75.238281 80.390625 74.058594 80.238281 C 71.695312 79.925781 69.328125 79.667969 66.960938 79.398438 C 62.136719 78.851562 57.316406 78.3125 52.488281 77.816406 C 45.371094 77.082031 38.238281 76.492188 31.113281 75.808594 C 24.136719 75.136719 17.160156 74.46875 10.191406 73.726562 C 7.890625 73.480469 6.414062 74.632812 4.734375 76.390625 C 6.542969 76.609375 8.023438 76.796875 9.511719 76.964844 C 15.472656 77.628906 21.429688 78.359375 27.398438 78.933594 C 34.089844 79.582031 40.800781 80.007812 47.488281 80.679688 C 54.964844 81.433594 62.425781 82.335938 69.890625 83.222656 C 73.90625 83.695312 75.285156 85.25 75.472656 89.292969 C 75.492188 89.652344 75.5 90.015625 75.492188 90.378906 C 75.238281 99.699219 74.964844 109.023438 74.746094 118.34375 C 74.609375 124.054688 74.617188 129.769531 74.449219 135.476562 C 74.335938 139.289062 74.027344 143.097656 73.792969 147.125 Z M 104.761719 119.960938 C 105.347656 118.972656 105.6875 118.453125 105.976562 117.90625 C 112.484375 105.453125 118.035156 92.574219 122.667969 79.316406 C 126.421875 68.582031 128.722656 57.574219 127.519531 46.105469 C 127.148438 42.59375 126.496094 39.105469 125.882812 35.621094 C 125.695312 34.570312 125.304688 33.507812 124.230469 32.9375 C 121.425781 31.445312 118.679688 29.808594 115.789062 28.503906 C 112.839844 27.171875 109.667969 27.242188 106.507812 27.308594 C 108.175781 28.367188 109.566406 30.027344 110.574219 31.710938 C 111.664062 33.472656 112.585938 35.394531 113.273438 37.351562 C 113.542969 38.128906 113.78125 38.914062 113.988281 39.710938 C 116.371094 48.847656 116.417969 58.046875 114.398438 67.210938 C 112.417969 76.191406 109.445312 84.886719 105.996094 93.410156 C 105.46875 94.710938 105.195312 95.992188 105.171875 97.398438 C 105.074219 103.613281 104.902344 109.832031 104.765625 116.050781 C 104.738281 117.175781 104.761719 118.300781 104.761719 119.960938 Z M 85.238281 147.527344 C 85.886719 147.371094 86.230469 147.320312 86.550781 147.203125 C 91.089844 145.515625 95.609375 143.78125 100.167969 142.148438 C 101.746094 141.582031 102.375 140.703125 102.398438 138.96875 C 102.503906 132.320312 102.777344 125.671875 102.980469 119.023438 C 103.3125 108.042969 103.648438 97.058594 103.96875 86.074219 C 104.289062 75.148438 104.078125 64.257812 102.585938 53.394531 C 101.789062 47.617188 100.488281 42.019531 98.292969 36.640625 C 96.242188 31.617188 93.246094 27.21875 88.953125 23.800781 C 83.65625 19.585938 77.550781 17.042969 71.105469 15.230469 C 69.785156 14.859375 68.425781 14.632812 66.855469 14.285156 C 68.988281 16.089844 71.015625 17.511719 72.679688 19.273438 C 77.761719 24.65625 81.234375 31.046875 83.886719 37.921875 C 86.238281 44.015625 86.9375 50.398438 87.277344 56.835938 C 87.859375 67.960938 87.8125 79.089844 87.339844 90.226562 C 86.59375 107.703125 85.929688 125.1875 85.246094 142.667969 C 85.183594 144.222656 85.238281 145.78125 85.238281 147.527344 Z M 8.890625 71.945312 C 16.839844 72.726562 24.460938 73.46875 32.082031 74.226562 C 43.519531 75.367188 54.964844 76.476562 66.394531 77.675781 C 68.738281 77.925781 71.085938 78.132812 73.421875 78.4375 C 74.605469 78.59375 75.78125 78.769531 76.949219 78.988281 C 77.871094 79.15625 78.800781 79.355469 79.578125 79.910156 C 80.363281 80.472656 80.8125 81.351562 81.023438 82.277344 C 81.257812 83.324219 81.335938 84.429688 81.3125 85.503906 C 81.175781 91.144531 80.933594 96.78125 80.820312 102.421875 C 80.621094 112.1875 80.582031 121.957031 80.289062 131.714844 C 80.132812 136.949219 80.488281 142.230469 79.21875 147.496094 C 80.65625 147.808594 82.039062 147.992188 83.539062 147.644531 C 83.699219 143.988281 83.890625 140.460938 84.003906 136.925781 C 84.6875 115.886719 85.535156 94.851562 85.9375 73.804688 C 86.097656 65.507812 85.738281 57.132812 84.761719 48.894531 C 83.375 37.203125 78.246094 27.050781 69.773438 18.78125 C 66.339844 15.429688 62.203125 13.234375 57.234375 13.015625 C 54.492188 12.898438 51.75 12.679688 49.007812 12.644531 C 39.648438 12.519531 31.71875 16.027344 25.371094 22.742188 C 20.066406 28.351562 15.980469 34.828125 13.441406 42.214844 C 10.808594 49.878906 9.839844 57.832031 9.171875 65.84375 C 9.011719 67.777344 8.992188 69.71875 8.890625 71.945312 Z M 3.65625 78.082031 C 3.566406 78.691406 3.480469 79.035156 3.46875 79.382812 C 3.34375 83.210938 3.238281 87.042969 3.113281 90.871094 C 2.804688 100.410156 2.457031 109.949219 2.1875 119.492188 C 2.054688 124.035156 1.519531 128.574219 2.148438 133.132812 C 2.65625 136.820312 3.855469 138.335938 7.488281 139.300781 C 8.113281 139.464844 8.75 139.621094 9.390625 139.722656 C 16.671875 140.878906 23.9375 142.152344 31.238281 143.136719 C 38.757812 144.152344 46.3125 144.929688 53.859375 145.710938 C 59.035156 146.25 64.226562 146.652344 69.414062 147.050781 C 71.300781 147.191406 71.90625 146.734375 72.296875 144.914062 C 72.570312 143.652344 72.703125 142.339844 72.734375 141.046875 C 72.855469 135.914062 72.878906 130.78125 73 125.648438 C 73.277344 113.792969 73.597656 101.9375 73.882812 90.085938 C 73.902344 89.296875 73.804688 88.492188 73.667969 87.714844 C 73.414062 86.300781 72.605469 85.367188 71.148438 85.078125 C 70.582031 84.96875 70.019531 84.8125 69.449219 84.75 C 60.179688 83.734375 50.914062 82.691406 41.636719 81.730469 C 30.351562 80.5625 19.058594 79.460938 7.769531 78.34375 C 6.429688 78.210938 5.082031 78.171875 3.65625 78.082031 Z M 41.023438 11.796875 C 41.226562 11.164062 41.242188 10.46875 41.382812 9.808594 C 41.714844 8.222656 42.15625 6.597656 42.933594 5.148438 C 43.816406 3.503906 45.039062 2.402344 46.730469 1.636719 C 50.160156 0.0898438 53.769531 0.00390625 57.378906 0.445312 C 60.617188 0.839844 63.726562 1.804688 66.738281 3.113281 C 69.902344 4.492188 72.621094 6.742188 74.238281 9.824219 C 74.6875 10.683594 75.015625 11.601562 75.285156 12.53125 C 75.417969 12.996094 75.566406 13.472656 75.660156 13.945312 C 75.734375 14.339844 75.707031 14.78125 76.023438 15.082031 C 76.175781 15.230469 76.382812 15.304688 76.578125 15.378906 C 78.199219 15.984375 79.804688 16.609375 81.433594 17.183594 C 81.777344 17.304688 82.128906 17.421875 82.488281 17.417969 C 82.816406 17.410156 83.128906 17.296875 83.433594 17.183594 C 85.058594 16.578125 86.628906 15.855469 88.191406 15.125 C 92.273438 13.214844 96.5625 12.242188 101.03125 11.871094 C 103.371094 11.675781 105.730469 11.710938 108.0625 11.96875 C 110.074219 12.191406 111.992188 12.699219 113.484375 14.15625 C 113.640625 14.3125 113.792969 14.476562 113.9375 14.644531 C 115.863281 16.890625 117.945312 19.019531 119.710938 21.390625 C 122.039062 24.511719 124.328125 27.679688 125.933594 31.28125 C 127.605469 35.027344 128.476562 38.964844 128.9375 43 C 130.191406 53.945312 128.953125 64.652344 125.730469 75.152344 C 122.386719 86.03125 117.910156 96.460938 113.082031 106.746094 C 110.78125 111.652344 108.292969 116.476562 105.816406 121.300781 C 105.039062 122.820312 104.597656 124.347656 104.558594 126.058594 C 104.472656 130.109375 104.289062 134.15625 104.144531 138.203125 C 104.140625 138.421875 104.117188 138.640625 104.132812 138.855469 C 104.285156 141.261719 103.257812 142.78125 100.925781 143.574219 C 95.867188 145.304688 90.90625 147.367188 85.777344 148.839844 C 83.351562 149.53125 80.621094 149.371094 78.046875 149.257812 C 72.992188 149.027344 67.941406 148.605469 62.898438 148.179688 C 57.640625 147.734375 52.382812 147.269531 47.136719 146.671875 C 39.378906 145.789062 31.621094 144.875 23.890625 143.785156 C 18.453125 143.015625 13.019531 142.109375 7.660156 140.933594 C 1.867188 139.660156 0.0898438 137.242188 0.21875 131.273438 C 0.441406 121.15625 0.761719 111.039062 1.085938 100.921875 C 1.320312 93.765625 1.726562 86.617188 1.855469 79.460938 C 1.875 78.347656 2.074219 77.09375 2.734375 76.171875 C 3.472656 75.136719 4.449219 74.226562 5.472656 73.484375 C 5.988281 73.109375 6.628906 72.675781 6.914062 72.085938 C 7.078125 71.753906 7.113281 71.378906 7.144531 71.011719 C 7.554688 66.4375 7.65625 61.855469 8.257812 57.296875 C 8.855469 52.753906 9.785156 48.253906 11.160156 43.882812 C 11.441406 43 11.734375 42.121094 12.046875 41.253906 C 15.324219 32.160156 20.359375 24.269531 28.019531 18.195312 C 31.585938 15.363281 35.585938 13.417969 39.941406 12.152344 C 40.414062 12.015625 40.882812 11.84375 41.023438 11.796875 " fill-opacity="1" fill-rule="nonzero"/></g><path fill="#231f20" d="M 8.277344 89.566406 C 8.394531 89.605469 8.519531 89.632812 8.640625 89.65625 C 9.707031 89.882812 10.796875 90.003906 11.875 90.148438 C 13.765625 90.394531 15.660156 90.621094 17.554688 90.839844 C 20.023438 91.121094 22.488281 91.394531 24.957031 91.660156 C 27.746094 91.957031 30.539062 92.25 33.332031 92.535156 C 36.203125 92.828125 39.074219 93.113281 41.949219 93.390625 C 43.996094 93.589844 46.0625 93.851562 48.097656 94.035156 C 50.972656 94.296875 53.835938 94.554688 56.6875 94.898438 C 59.03125 95.175781 61.375 95.402344 63.730469 95.457031 C 63.847656 94.6875 64.015625 93.910156 64.015625 93.128906 C 45.480469 91.21875 27.054688 89.316406 8.476562 87.40625 C 8.402344 88.242188 8.34375 88.863281 8.277344 89.566406 Z M 7.550781 90.746094 C 7.117188 90.503906 7.121094 90.089844 7.167969 89.519531 C 7.242188 88.597656 7.039062 87.222656 7.953125 86.625 C 8.726562 86.117188 9.945312 86.324219 10.804688 86.40625 C 21.527344 87.449219 32.242188 88.546875 42.964844 89.617188 C 49.722656 90.292969 56.484375 90.96875 63.25 91.621094 C 64.996094 91.789062 65.191406 91.953125 65.222656 93.730469 C 65.230469 94.164062 65.230469 94.601562 65.175781 95.03125 C 64.976562 96.550781 64.578125 96.925781 63.042969 96.789062 C 54.765625 96.050781 46.488281 95.316406 38.214844 94.5 C 32.246094 93.914062 26.285156 93.226562 20.324219 92.542969 C 16.660156 92.125 13.007812 91.644531 9.351562 91.164062 C 8.839844 91.09375 8.332031 91.007812 7.835938 90.863281 C 7.722656 90.832031 7.628906 90.789062 7.550781 90.746094 " fill-opacity="1" fill-rule="nonzero"/><path fill="#231f20" d="M 33.324219 53.226562 C 42.589844 53.914062 51.480469 55.332031 60.703125 55.578125 C 60.808594 51.894531 61.230469 48.269531 61.667969 44.609375 C 61.914062 42.535156 62.3125 40.417969 62.328125 38.332031 C 53.027344 37.5 43.933594 36.6875 34.566406 35.847656 C 34.144531 41.746094 33.742188 47.394531 33.324219 53.226562 Z M 32.15625 54.125 C 31.941406 53.894531 31.820312 53.5625 31.839844 53.074219 C 31.957031 49.953125 32.289062 46.824219 32.515625 43.707031 C 32.640625 41.933594 32.796875 40.15625 32.992188 38.390625 C 33.085938 37.496094 33.195312 36.601562 33.3125 35.710938 C 33.414062 34.953125 33.761719 34.648438 34.539062 34.5625 C 34.824219 34.53125 35.117188 34.546875 35.402344 34.570312 C 42.386719 35.164062 49.433594 35.671875 56.445312 36.257812 C 58.578125 36.4375 60.78125 36.484375 62.882812 36.875 C 63.859375 37.054688 63.738281 37.648438 63.671875 38.445312 C 63.597656 39.351562 63.527344 40.257812 63.445312 41.164062 C 63.027344 45.761719 62.617188 50.367188 62.183594 54.964844 C 62.003906 56.828125 61.75 57.101562 59.882812 56.976562 C 55.488281 56.675781 51.097656 56.328125 46.710938 55.9375 C 43.882812 55.6875 41.066406 55.316406 38.242188 55.023438 C 36.816406 54.871094 35.386719 54.738281 33.953125 54.652344 C 33.25 54.609375 32.546875 54.542969 32.15625 54.125 " fill-opacity="1" fill-rule="nonzero"/><path fill="#231f20" d="M 28.519531 23.417969 C 25.597656 26.277344 23.015625 29.476562 20.824219 32.921875 C 18.640625 36.359375 16.851562 40.046875 15.496094 43.882812 C 14.726562 46.058594 14.105469 48.28125 13.628906 50.535156 C 13.542969 50.941406 14.167969 51.117188 14.257812 50.707031 C 15.089844 46.75 16.382812 42.890625 18.101562 39.226562 C 19.8125 35.582031 21.933594 32.121094 24.425781 28.953125 C 25.832031 27.164062 27.351562 25.46875 28.980469 23.878906 C 29.277344 23.585938 28.816406 23.125 28.519531 23.417969 " fill-opacity="1" fill-rule="nonzero"/><path fill="#231f20" d="M 13.648438 53.4375 C 13.457031 53.4375 13.34375 53.585938 13.324219 53.757812 C 13.230469 54.578125 13.140625 55.394531 13.046875 56.210938 C 13.027344 56.386719 13.210938 56.535156 13.371094 56.535156 C 13.566406 56.535156 13.679688 56.386719 13.699219 56.210938 C 13.789062 55.394531 13.882812 54.578125 13.972656 53.757812 C 13.992188 53.585938 13.808594 53.4375 13.648438 53.4375 " fill-opacity="1" fill-rule="nonzero"/><path fill="#231f20" d="M 100.734375 119.460938 L 100.734375 134.078125 C 100.734375 134.496094 101.382812 134.496094 101.382812 134.078125 L 101.382812 119.460938 C 101.382812 119.042969 100.734375 119.042969 100.734375 119.460938 " fill-opacity="1" fill-rule="nonzero"/><path fill="#231f20" d="M 101.0625 135.507812 C 100.878906 135.507812 100.746094 135.652344 100.738281 135.832031 C 100.6875 136.726562 100.636719 137.621094 100.585938 138.519531 C 100.578125 138.695312 100.742188 138.84375 100.914062 138.84375 C 101.097656 138.84375 101.226562 138.695312 101.238281 138.519531 C 101.289062 137.621094 101.339844 136.726562 101.390625 135.832031 C 101.398438 135.65625 101.230469 135.507812 101.0625 135.507812 " fill-opacity="1" fill-rule="nonzero"/><g clip-path="url(#0f02dbfd95)"><path stroke-linecap="butt" transform="matrix(0, -0.747713, 0.747713, 0, 205.131185, 161.413518)" fill="none" stroke-linejoin="miter" d="M -0.00072831 1.50154 L 207.235264 1.50154 " stroke="#000000" stroke-width="3" stroke-opacity="1" stroke-miterlimit="4"/></g><g clip-path="url(#df21cceb0b)"><path stroke-linecap="butt" transform="matrix(0.747713, 0.000000000000000059, -0.000000000000000059, 0.747713, 72.03106, 6.46128)" fill="none" stroke-linejoin="miter" d="M 0.00025376 1.498905 L 181.010455 1.498905 " stroke="#000000" stroke-width="3" stroke-opacity="1" stroke-miterlimit="4"/></g><g clip-path="url(#fe37800266)"><path stroke-linecap="butt" transform="matrix(0, -0.747713, 0.747713, 0, 52.419885, 162.533234)" fill="none" stroke-linejoin="miter" d="M -0.00257127 1.502024 L 20.941492 1.502024 " stroke="#000000" stroke-width="3" stroke-opacity="1" stroke-miterlimit="4"/></g></svg>